<?xml version="1.0" encoding="UTF-8" standalone="no"?>
<!-- Created with Inkscape (http://www.inkscape.org/) -->

<svg
   xmlns:dc="http://purl.org/dc/elements/1.1/"
   xmlns:cc="http://creativecommons.org/ns#"
   xmlns:rdf="http://www.w3.org/1999/02/22-rdf-syntax-ns#"
   xmlns:svg="http://www.w3.org/2000/svg"
   xmlns="http://www.w3.org/2000/svg"
   xmlns:sodipodi="http://sodipodi.sourceforge.net/DTD/sodipodi-0.dtd"
   xmlns:inkscape="http://www.inkscape.org/namespaces/inkscape"
   version="1.1"
   id="svg5384"
   width="90"
   height="90"
   viewBox="0 0 90 90"
   sodipodi:docname="service-2.svg"
   inkscape:version="0.92.1 r15371">
  <metadata
     id="metadata5390">
    <rdf:RDF>
      <cc:Work
         rdf:about="">
        <dc:format>image/svg+xml</dc:format>
        <dc:type
           rdf:resource="http://purl.org/dc/dcmitype/StillImage" />
        <dc:title></dc:title>
      </cc:Work>
    </rdf:RDF>
  </metadata>
  <defs
     id="defs5388" />
  <sodipodi:namedview
     pagecolor="#ffffff"
     bordercolor="#666666"
     borderopacity="1"
     objecttolerance="10"
     gridtolerance="10"
     guidetolerance="10"
     inkscape:pageopacity="0"
     inkscape:pageshadow="2"
     inkscape:window-width="1920"
     inkscape:window-height="1017"
     id="namedview5386"
     showgrid="false"
     inkscape:zoom="18.844444"
     inkscape:cx="26.744945"
     inkscape:cy="42.36381"
     inkscape:window-x="-8"
     inkscape:window-y="-8"
     inkscape:window-maximized="1"
     inkscape:current-layer="svg5384" />
  <g
     id="g5422"
     transform="translate(2.5122642e-7,0.30929136)">
    <path
       style="fill:#fdfdfd"
       d="M 0.05377731,71.25 0.10755462,52.5 1.9308034,58.202303 c 2.5237434,7.893136 6.0570311,13.577251 11.7496296,18.90201 6.192927,5.792758 12.43263,9.435394 19.343811,11.292596 5.352514,1.438351 5.042498,1.47295 -13.774244,1.53728 L 0,90 Z M 56.975756,88.396909 c 6.911181,-1.857202 13.150884,-5.499838 19.343811,-11.292596 5.692598,-5.324759 9.225886,-11.008874 11.74963,-18.90201 L 89.892445,52.5 89.946223,71.25 90,90 70.75,89.934189 C 51.933258,89.869859 51.623242,89.83526 56.975756,88.396909 Z M 37.227893,87.007516 C 25.433496,85.230232 12.121004,75.145794 6.6567704,63.849374 1.1826064,52.532423 1.2049317,37.459055 6.7128294,26 9.9944261,19.172713 18.865099,10.373676 26.063808,6.805291 49.213249,-4.6698384 78.251636,7.7477482 85.724079,32.31761 c 2.05694,6.76335 2.03253,18.731862 -0.05265,25.813299 C 82.434419,69.124072 71.542292,80.689859 60.5,84.859151 54.428329,87.151662 44.355368,88.081547 37.227893,87.007516 Z M 47.617949,46 c 2.927342,-10.175 5.335852,-19.093798 5.352245,-19.819551 0.01776,-0.786127 -0.832224,-1.190374 -2.102631,-1 C 49.015449,25.457993 48.030749,27.931945 43.376867,44 c -2.947042,10.175 -5.362446,19.093798 -5.367563,19.819551 -0.0055,0.784198 0.862059,1.189906 2.138451,1 C 42.021684,64.540741 42.974089,62.141362 47.617949,46 Z M 35.669588,58.418658 c 0.407794,-1.062696 -1.314123,-3.522539 -5.250082,-7.5 L 24.562607,45 30.419506,39.081342 c 3.935959,-3.977461 5.657876,-6.437304 5.250082,-7.5 C 35.335838,30.711604 34.49744,30 33.806481,30 32.018328,30 19,43.14283 19,44.948084 19,46.79617 31.942988,60 33.754565,60 c 0.719513,0 1.581273,-0.711604 1.915023,-1.581342 z M 65.224904,53.27682 C 68.951207,49.57907 72,45.877864 72,45.051916 72,43.20383 59.057012,30 57.245435,30 53.958901,30 54.9827,33.288461 59.882023,38.468773 62.696911,41.445101 65,44.455566 65,45.158694 c 0,0.703129 -2.311852,3.619346 -5.137449,6.480484 -3.410959,3.453862 -4.933775,5.732833 -4.531384,6.781445 1.052274,2.742182 2.931332,1.765251 9.893737,-5.143803 z M 0.05377731,18.75 0,0 19.25,0.06581111 C 38.066742,0.13014102 38.376758,0.16474042 33.024244,1.603091 26.113063,3.4602935 19.87336,7.1029289 13.680433,12.895687 7.9878345,18.220446 4.4545468,23.904561 1.9308034,31.797697 L 0.10755462,37.5 Z M 88.586716,33.610543 C 86.057327,20.127744 71.659021,5.5488417 56.975756,1.603091 51.623242,0.16474042 51.933258,0.13014102 70.75,0.06581111 L 90,0 V 18.5 C 90,28.675 89.825081,37 89.611291,37 c -0.21379,0 -0.674849,-1.525255 -1.024575,-3.389457 z"
       id="path5436"
       inkscape:connector-curvature="0" />
    <path
       style="fill:#ebebeb"
       d="m 38.75,87.337719 c 0.6875,-0.277412 1.8125,-0.277412 2.5,0 0.6875,0.277413 0.125,0.504386 -1.25,0.504386 -1.375,0 -1.9375,-0.226973 -1.25,-0.504386 z m 10,0 c 0.6875,-0.277412 1.8125,-0.277412 2.5,0 0.6875,0.277413 0.125,0.504386 -1.25,0.504386 -1.375,0 -1.9375,-0.226973 -1.25,-0.504386 z M 10,70.5 C 9.3153108,69.675 8.9801106,69 9.2551106,69 9.5301106,69 10.315311,69.675 11,70.5 11.684689,71.325 12.019889,72 11.744889,72 11.469889,72 10.684689,71.325 10,70.5 Z m 68,1.122445 c 0,-0.207656 0.7875,-0.995156 1.75,-1.75 C 81.336056,68.628574 81.371426,68.663944 80.127555,70.25 78.821186,71.915748 78,72.445479 78,71.622445 Z M 25.47318,52.75 18.5,45.5 l 7.25,6.97318 c 3.9875,3.83525 7.25,7.09775 7.25,7.25 0,0.733507 -1.050128,-0.239379 -7.52682,-6.97318 z M 64.5,53 c 3.820499,-3.85 7.171361,-7 7.446361,-7 0.275,0 -2.625862,3.15 -6.446361,7 -3.820499,3.85 -7.171361,7 -7.446361,7 -0.275,0 2.625862,-3.15 6.446361,-7 z M 0.07894737,51.416667 c 0.04798392,-1.164943 0.2849403,-1.4019 0.60416667,-0.604167 0.28887061,0.721875 0.25334429,1.584375 -0.0789474,1.916667 -0.33229167,0.332291 -0.56864035,-0.258334 -0.52521927,-1.3125 z M 2.1949487,50.5 c 0.02038,-1.65 0.2444986,-2.203936 0.498042,-1.230968 0.2535434,0.972967 0.2368691,2.322967 -0.037054,3 C 2.3820136,52.946064 2.174569,52.15 2.1949487,50.5 Z m 86.8839983,0.916667 c 0.04798,-1.164943 0.284941,-1.4019 0.604167,-0.604167 0.288871,0.721875 0.253344,1.584375 -0.07895,1.916667 -0.332292,0.332291 -0.568641,-0.258334 -0.52522,-1.3125 z M 87.157895,50 c 0,-1.375 0.226973,-1.9375 0.504386,-1.25 0.277412,0.6875 0.277412,1.8125 0,2.5 -0.277413,0.6875 -0.504386,0.125 -0.504386,-1.25 z M 64.564293,44.293128 c -0.542685,-1.425198 -0.427821,-1.540062 0.559795,-0.559795 0.683418,0.678334 0.990671,1.485241 0.682784,1.793128 -0.307887,0.307888 -0.867048,-0.247112 -1.242579,-1.233333 z M 25.5,37 c 3.820499,-3.85 7.171361,-7 7.446361,-7 0.275,0 -2.625862,3.15 -6.446361,7 -3.820499,3.85 -7.171361,7 -7.446361,7 -0.275,0 2.625862,-3.15 6.446361,-7 z M 64.47318,36.75 57.5,29.5 64.75,36.47318 C 71.483801,42.949872 72.456687,44 71.72318,44 c -0.15225,0 -3.41475,-3.2625 -7.25,-7.25 z M 2.1578947,40 c 0,-1.375 0.2269737,-1.9375 0.504386,-1.25 0.2774123,0.6875 0.2774123,1.8125 0,2.5 -0.2774123,0.6875 -0.504386,0.125 -0.504386,-1.25 z m 85.0000003,0 c 0,-1.375 0.226973,-1.9375 0.504386,-1.25 0.277412,0.6875 0.277412,1.8125 0,2.5 -0.277413,0.6875 -0.504386,0.125 -0.504386,-1.25 z M 0.07894737,38.416667 c 0.04798392,-1.164943 0.2849403,-1.4019 0.60416667,-0.604167 0.28887061,0.721875 0.25334429,1.584375 -0.0789474,1.916667 -0.33229167,0.332291 -0.56864035,-0.258334 -0.52521927,-1.3125 z m 88.99999963,0 c 0.04798,-1.164943 0.284941,-1.4019 0.604167,-0.604167 0.288871,0.721875 0.253344,1.584375 -0.07895,1.916667 -0.332292,0.332291 -0.568641,-0.258334 -0.52522,-1.3125 z M 37.730968,2.3440633 c 0.677033,-0.2739231 2.027033,-0.2905974 3,-0.037054 C 41.703936,2.5605527 41.15,2.7846716 39.5,2.8050513 37.85,2.825431 37.053936,2.6179864 37.730968,2.3440633 Z m 11,0 c 0.677033,-0.2739231 2.027033,-0.2905974 3,-0.037054 C 52.703936,2.5605527 52.15,2.7846716 50.5,2.8050513 48.85,2.825431 48.053936,2.6179864 48.730968,2.3440633 Z"
       id="path5434"
       inkscape:connector-curvature="0" />
    <path
       style="fill:#e2e2e2"
       d="M 15.073886,78.589028 C 14.273377,77.624473 14.234637,76.97302 14.951442,76.530011 15.528149,76.173586 16.03443,76.021024 16.076511,76.190983 16.525395,78.003955 16.765113,80 16.533961,80 16.374972,80 15.717938,79.365062 15.073886,78.589028 Z m 58.310796,-0.0043 c 0.302975,-2.0643 1.284721,-2.928686 2.004172,-1.76459 0.324019,0.524273 -0.04479,1.479326 -0.819571,2.122339 -1.111428,0.922402 -1.361407,0.846909 -1.184601,-0.357749 z M 11.086693,74.604459 c -0.962471,-1.159707 -0.886701,-1.398139 0.384993,-1.211494 0.870816,0.127809 1.608429,0.579177 1.639141,1.003041 0.110541,1.525615 -0.848977,1.62443 -2.024134,0.208453 z M 76.5,75 c -0.339919,-0.55 -0.478976,-1.03443 -0.309017,-1.076511 3.292531,-0.815217 3.852704,-0.681054 2.74238,0.656804 C 77.532361,76.268397 77.307846,76.307122 76.5,75 Z M 0.07894737,48.416667 c 0.04798392,-1.164943 0.2849403,-1.4019 0.60416667,-0.604167 0.28887061,0.721875 0.25334429,1.584375 -0.0789474,1.916667 -0.33229167,0.332291 -0.56864035,-0.258334 -0.52521927,-1.3125 z m 88.99999963,0 c 0.04798,-1.164943 0.284941,-1.4019 0.604167,-0.604167 0.288871,0.721875 0.253344,1.584375 -0.07895,1.916667 -0.332292,0.332291 -0.568641,-0.258334 -0.52522,-1.3125 z m -88.99999963,-7 c 0.04798392,-1.164943 0.2849403,-1.4019 0.60416667,-0.604167 0.28887061,0.721875 0.25334429,1.584375 -0.0789474,1.916667 -0.33229167,0.332291 -0.56864035,-0.258334 -0.52521927,-1.3125 z m 88.99999963,0 c 0.04798,-1.164943 0.284941,-1.4019 0.604167,-0.604167 0.288871,0.721875 0.253344,1.584375 -0.07895,1.916667 -0.332292,0.332291 -0.568641,-0.258334 -0.52522,-1.3125 z M 10.437313,16.229354 c 0.341317,-0.341317 1.323785,-0.723785 2.183263,-0.84993 0.859478,-0.126144 1.283428,0.04991 0.942111,0.391222 -0.341317,0.341317 -1.323785,0.723785 -2.183263,0.84993 -0.859478,0.126144 -1.283428,-0.04991 -0.942111,-0.391222 z m 66.013935,-0.308236 c -0.253426,-0.410052 0.203344,-0.648077 1.015045,-0.528944 2.089593,0.306687 2.841151,1.274493 0.989718,1.274493 -0.849193,0 -1.751337,-0.335497 -2.004763,-0.745549 z m -61.840102,-2.74128 c -0.324019,-0.524273 0.04479,-1.479326 0.819571,-2.122339 1.111428,-0.922402 1.361407,-0.846909 1.184601,0.357749 -0.302975,2.0643 -1.284721,2.928686 -2.004172,1.76459 z m 59.312343,0.629179 C 73.474605,11.996045 73.234887,10 73.466039,10 c 0.158989,0 0.816023,0.634938 1.460075,1.410972 0.800509,0.964555 0.839249,1.616008 0.122444,2.059017 -0.576707,0.356425 -1.082988,0.508987 -1.125069,0.339028 z"
       id="path5432"
       inkscape:connector-curvature="0" />
    <path
       style="fill:#dcdcdc"
       d="M 37.093745,88.868835 C 24.3912,86.760399 10.641833,76.288782 4.9528185,64.390074 -5.4932646,42.541846 3.7034175,15.805037 25.32617,5.160191 57.433878,-10.646381 93.949409,16.04703 88.908812,51.640074 86.278506,70.213386 70.76338,85.889185 52,88.93111 44.709163,90.113102 44.586916,90.112592 37.093745,88.868835 Z M 62.28215,84.753659 c 7.824085,-3.61621 13.923707,-8.812232 18.645773,-15.883582 5.482378,-8.209925 7.352471,-15.268162 6.84589,-25.838235 C 87.064463,28.230902 80.879248,17.091493 68.945406,9.1223792 61.455556,4.1208495 54.258202,1.9969558 44.846093,2.0108243 32.384652,2.0291859 23.245859,5.7976197 14.53279,14.510688 5.8747619,23.168716 1.9932683,32.590667 2.0108243,44.90655 2.0289584,57.627979 5.740159,66.696681 14.521739,75.478261 24.076291,85.032812 32.089619,88.095502 46.5,87.700333 54.866571,87.4709 57.444473,86.989582 62.28215,84.753659 Z"
       id="path5430"
       inkscape:connector-curvature="0" />
    <path
       style="fill:#d5786b"
       d="M 28.988427,50.488282 23.545175,44.976564 29.510793,39.238282 35.47641,33.5 30.022365,39.25 24.56832,45 30,50.5 c 2.987424,3.025 5.20668,5.5 4.93168,5.5 -0.275,0 -2.949464,-2.480273 -5.943253,-5.511718 z M 60.5,51 c 2.708649,-2.75 5.149816,-5 5.424816,-5 0.275,0 -1.716167,2.25 -4.424816,5 -2.708649,2.75 -5.149816,5 -5.424816,5 -0.275,0 1.716167,-2.25 4.424816,-5 z M 59.958208,38.25 55.5,33.5 l 4.75,4.458208 c 2.6125,2.452014 4.75,4.589514 4.75,4.75 0,0.750886 -0.897827,-0.04302 -5.041792,-4.458208 z"
       id="path5428"
       inkscape:connector-curvature="0" />
    <path
       style="fill:#cb5545"
       d="M 25.971112,52.25 19.5,45.5 l 6.75,6.471112 c 3.7125,3.559111 6.75,6.596611 6.75,6.75 C 33,59.457129 31.981756,58.519687 25.971112,52.25 Z M 64,52.5 c 3.543223,-3.575 6.667223,-6.5 6.942223,-6.5 0.275,0 -2.399,2.925 -5.942223,6.5 -3.543223,3.575 -6.667223,6.5 -6.942223,6.5 -0.275,0 2.399,-2.925 5.942223,-6.5 z m 1.564293,-8.206872 c -0.542685,-1.425198 -0.427821,-1.540062 0.559795,-0.559795 0.683418,0.678334 0.990671,1.485241 0.682784,1.793128 -0.307887,0.307888 -0.867048,-0.247112 -1.242579,-1.233333 z M 26,37.5 c 3.543223,-3.575 6.667223,-6.5 6.942223,-6.5 0.275,0 -2.399,2.925 -5.942223,6.5 -3.543223,3.575 -6.667223,6.5 -6.942223,6.5 -0.275,0 2.399,-2.925 5.942223,-6.5 z M 63.971112,37.25 57.5,30.5 l 6.75,6.471112 c 3.7125,3.559111 6.75,6.596611 6.75,6.75 0,0.736017 -1.018244,-0.201425 -7.028888,-6.471112 z"
       id="path5426"
       inkscape:connector-curvature="0" />
    <path
       style="fill:#bf2f1b"
       d="m 38.997582,63.25 c -0.0013,-0.4125 2.36117,-8.960809 5.25,-18.996243 3.19977,-11.115602 5.740919,-18.247711 6.502418,-18.25 0.6875,-0.0021 1.251088,0.333743 1.252418,0.746243 0.0013,0.4125 -2.36117,8.960809 -5.25,18.996243 -3.19977,11.115602 -5.740919,18.247711 -6.502418,18.25 C 39.5625,63.998309 38.998912,63.6625 38.997582,63.25 Z M 26.488454,51.988365 19.553639,45 26.488454,38.011635 c 4.612843,-4.648462 7.268895,-6.654286 7.932578,-5.990603 0.663683,0.663683 -0.987131,3.003586 -4.930331,6.988365 L 23.562607,45 l 5.928094,5.990603 c 3.9432,3.984779 5.594014,6.324682 4.930331,6.988365 -0.663683,0.663683 -3.319735,-1.342141 -7.932578,-5.990603 z m 30.019814,6.025013 c -0.468743,-0.758442 1.436148,-3.420302 5.090023,-7.112706 L 67.437393,45 61.509299,39.009397 c -3.9432,-3.984779 -5.594014,-6.324682 -4.930331,-6.988365 0.663683,-0.663683 3.32277,1.345199 7.941642,5.999737 l 6.94388,6.9975 -7.103572,7.103572 c -4.799186,4.799186 -7.346571,6.71039 -7.85265,5.891537 z"
       id="path5424"
       inkscape:connector-curvature="0" />
  </g>
  <path
     style="fill:#bf2f1b;fill-opacity:1;stroke-width:0.05306604"
     d=""
     id="path5438"
     inkscape:connector-curvature="0" />
</svg>
