<?xml version="1.0" encoding="UTF-8" standalone="no"?>
<!-- Created with Inkscape (http://www.inkscape.org/) -->

<svg
   xmlns:dc="http://purl.org/dc/elements/1.1/"
   xmlns:cc="http://creativecommons.org/ns#"
   xmlns:rdf="http://www.w3.org/1999/02/22-rdf-syntax-ns#"
   xmlns:svg="http://www.w3.org/2000/svg"
   xmlns="http://www.w3.org/2000/svg"
   xmlns:sodipodi="http://sodipodi.sourceforge.net/DTD/sodipodi-0.dtd"
   xmlns:inkscape="http://www.inkscape.org/namespaces/inkscape"
   version="1.1"
   id="svg5494"
   width="90"
   height="90"
   viewBox="0 0 90 90"
   sodipodi:docname="service-3.svg"
   inkscape:version="0.92.1 r15371">
  <metadata
     id="metadata5500">
    <rdf:RDF>
      <cc:Work
         rdf:about="">
        <dc:format>image/svg+xml</dc:format>
        <dc:type
           rdf:resource="http://purl.org/dc/dcmitype/StillImage" />
        <dc:title></dc:title>
      </cc:Work>
    </rdf:RDF>
  </metadata>
  <defs
     id="defs5498" />
  <sodipodi:namedview
     pagecolor="#ffffff"
     bordercolor="#666666"
     borderopacity="1"
     objecttolerance="10"
     gridtolerance="10"
     guidetolerance="10"
     inkscape:pageopacity="0"
     inkscape:pageshadow="2"
     inkscape:window-width="1920"
     inkscape:window-height="1017"
     id="namedview5496"
     showgrid="false"
     inkscape:zoom="6.6625172"
     inkscape:cx="59.439231"
     inkscape:cy="38.486616"
     inkscape:window-x="-8"
     inkscape:window-y="-8"
     inkscape:window-maximized="1"
     inkscape:current-layer="svg5494" />
  <g
     id="g5536"
     transform="translate(0.15009489)">
    <path
       style="fill:#ffffff"
       d="M 0.03264585,72.25 0.0652917,54.5 l 1.825821,5.285841 c 2.2421506,6.491135 8.1585413,15.244852 13.2478243,19.601089 4.334502,3.710172 13.355358,8.506402 18.134527,9.641807 1.914776,0.4549 -4.193068,0.808155 -15.023464,0.868902 L 0,90 Z M 56.726536,89.028737 C 61.505705,87.893332 70.526561,83.097102 74.861063,79.38693 79.931698,75.046654 85.526432,66.762233 87.953674,60 l 1.974174,-5.5 0.03608,17.75 L 90,90 71.75,89.897639 C 60.919604,89.836892 54.81176,89.483637 56.726536,89.028737 Z M 0.03264585,17.75 0,0 18.25,0.10236148 C 29.046135,0.16291536 35.185436,0.51713638 33.281429,0.96963416 19.688133,4.2001564 6.6747032,16.380327 1.8237929,30.413016 L 0.0652917,35.5 Z M 89,33.392967 c 0,-0.883868 -1.42661,-4.596368 -3.170245,-8.25 C 80.469637,13.911318 68.158493,3.6883952 56.718571,0.96963416 54.814564,0.51713638 60.953865,0.16291536 71.75,0.10236148 L 90,0 V 17.5 C 90,27.125 89.775,35 89.5,35 89.225,35 89,34.276835 89,33.392967 Z"
       id="path5560"
       inkscape:connector-curvature="0" />
    <path
       style="fill:#fefefe"
       d="M 32.5,85.652029 C 21.300528,81.949124 12.004446,73.817038 6.7349005,63.113071 3.6547542,56.856405 3.5,55.989895 3.5,45 3.5,34.010105 3.6547542,33.143595 6.7349005,26.886929 10.844005,18.540153 18.118613,11.254169 26.684057,6.9065777 33.174076,3.6124166 33.7785,3.5 45,3.5 c 11.183421,0 11.843932,0.1215568 18.205263,3.3503995 16.463423,8.3563955 24.418336,22.0869485 23.609635,40.7513385 -0.334642,7.723353 -0.872245,10.070702 -3.549896,15.5 -4.058651,8.229458 -11.962186,16.131563 -20.181637,20.177986 -5.789156,2.849992 -7.522598,3.210769 -16.525469,3.439405 C 40.227801,86.879887 35.017463,86.484383 32.5,85.652029 Z m 23.040865,-19.0189 C 64.526933,62.448671 69.014289,55.151506 68.978038,44.782119 68.928867,30.717117 59.013438,20.8 45,20.8 35.269555,20.8 26.82856,26.032618 22.89985,34.5 20.672663,39.300162 20.385627,49.598138 22.348462,54.282119 26.003381,63.003978 35.213708,68.980462 45,68.980462 c 3.672952,0 7.174527,-0.779761 10.540865,-2.347333 z M 39.112037,63.917802 c -2.311476,-0.924823 -2.330534,-1.018884 -0.595013,-2.936614 2.503848,-2.76672 10.45843,-2.77078 12.959965,-0.0066 1.731855,1.913679 1.703788,2.006198 -0.910112,3 -3.292108,1.251658 -8.245954,1.227106 -11.45484,-0.05677 z m 1.113037,-10.922 C 34.173986,49.306454 33.431498,43.368502 38.4,38.4 c 4.200024,-4.200024 8.165337,-4.478069 12.449757,-0.872968 5.505402,4.632491 5.010245,11.7587 -1.074831,15.46877 -4.095192,2.496838 -5.45466,2.496838 -9.549852,0 z M 25.42214,49.43666 c -0.678046,-3.614295 -0.06917,-11.12296 0.98765,-12.179783 0.317872,-0.317872 1.480707,0.239037 2.584079,1.237575 2.703306,2.446458 2.813987,10.464473 0.17739,12.85056 -2.576489,2.331691 -2.993504,2.119425 -3.749119,-1.908352 z m 35.232848,1.734599 C 58.225761,48.486994 58.438178,40.818417 61.006131,38.494452 62.109503,37.495914 63.272338,36.939005 63.59021,37.256877 65.489261,39.155927 65.066691,53 63.109675,53 62.66984,53 61.565231,52.177067 60.654988,51.171259 Z M 38.494452,28.993869 c -0.998538,-1.103372 -1.480783,-2.340872 -1.071655,-2.75 0.969109,-0.969108 14.185297,-0.969108 15.154406,0 0.409128,0.409128 -0.07312,1.646628 -1.071655,2.75 -2.542673,2.809623 -10.468423,2.809623 -13.011096,0 z"
       id="path5558"
       inkscape:connector-curvature="0" />
    <path
       style="fill:#faf1f0"
       d="M 36.65752,63.324187 C 35.88315,62.549817 39.858249,58 41.309173,58 c 0.528299,0 -0.22943,0.936034 -1.683842,2.080075 -1.454413,1.144041 -2.388542,2.494041 -2.075842,3 0.662127,1.071343 0.09145,1.227526 -0.891969,0.244112 z m 15.6975,-0.0896 C 52.72024,62.643645 51.829082,61.224116 50.374669,60.080075 48.920257,58.936034 48.162528,58 48.690827,58 c 0.5283,0 1.972829,1.077527 3.210064,2.394504 1.654309,1.76093 1.924144,2.595596 1.019806,3.154508 -0.756027,0.46725 -0.973926,0.346132 -0.565677,-0.314429 z M 28.924314,38.25 26.5,35.5 29.25,37.924314 C 31.820289,40.190201 32.458588,41 31.674314,41 c -0.179127,0 -1.416627,-1.2375 -2.75,-2.75 z M 60,38.5 C 61.291745,37.125 62.573628,36 62.848628,36 63.123628,36 62.291745,37.125 61,38.5 59.708255,39.875 58.426372,41 58.151372,41 57.876372,41 58.708255,39.875 60,38.5 Z"
       id="path5556"
       inkscape:connector-curvature="0" />
    <path
       style="fill:#e0e0e0"
       d="m 10.613087,15.817021 c 0.28881,-0.467304 0.944015,-0.590747 1.456011,-0.274316 1.308382,0.808625 1.161058,1.123962 -0.525109,1.123962 -0.800807,0 -1.219712,-0.382341 -0.930902,-0.849646 z m 67,0 c 0.28881,-0.467304 0.944015,-0.590747 1.456011,-0.274316 1.308382,0.808625 1.161058,1.123962 -0.525109,1.123962 -0.800807,0 -1.219712,-0.382341 -0.930902,-0.849646 z"
       id="path5554"
       inkscape:connector-curvature="0" />
    <path
       style="fill:#f2d7d3"
       d="m 29.08599,51.381784 c 1.327706,-1.71502 2.615146,-2.938883 2.86098,-2.719697 0.245833,0.219185 -0.840471,1.622383 -2.41401,3.118216 L 26.671981,54.5 Z m 30.917714,0.122159 c -1.289708,-1.372831 -2.155649,-2.663529 -1.924314,-2.868216 0.231336,-0.204688 1.467336,0.918537 2.746668,2.496057 2.862988,3.530292 2.358881,3.758428 -0.822354,0.372159 z M 37.404988,28.75 35.5,26.5 l 2.25,1.904988 c 1.2375,1.047743 2.25,2.060243 2.25,2.25 0,0.800253 -0.804794,0.209457 -2.595012,-1.904988 z M 51.5,29 c 0.995486,-1.1 2.034975,-2 2.309975,-2 0.275,0 -0.314489,0.9 -1.309975,2 -0.995486,1.1 -2.034975,2 -2.309975,2 -0.275,0 0.314489,-0.9 1.309975,-2 z"
       id="path5552"
       inkscape:connector-curvature="0" />
    <path
       style="fill:#dcdcdc"
       d="m 39,88.865585 c -3.025,-0.405761 -6.625,-1.218729 -8,-1.806595 -2.151951,-0.920044 -2.012731,-0.963747 1,-0.313919 4.44005,0.957692 21.38957,0.982412 26,0.03792 3.196987,-0.654935 3.153699,-0.602768 -0.5,0.602571 -5.552256,1.831664 -12.02062,2.349142 -18.5,1.480023 z m 23,-3.324937 c 0,-0.275 1.6875,-1.369861 3.75,-2.433024 8.63499,-4.451104 15.530355,-12.380339 19.803339,-22.772593 1.319555,-3.209267 2.409871,-5.107992 2.422926,-4.219388 0.05407,3.680182 -7.140437,15.74951 -12.293193,20.622772 C 71.026557,81.142353 62,86.949079 62,85.540648 Z M 20.945781,82.161952 C 18.500601,80.601026 14.558023,77.204102 12.184495,74.613231 7.9874053,70.031816 1.9782794,59.023 2.0245244,56 2.037145,55.175 3.1140368,57.093607 4.4176173,60.26357 8.424297,70.006759 14.36319,77.370419 21.666357,81.650359 25.419332,83.849749 26.803017,85 25.695781,85 c -0.167321,0 -2.304821,-1.277121 -4.75,-2.838048 z M 1.3604965,45 c 0,-5.225 0.1685443,-7.3625 0.3745429,-4.75 0.2059987,2.6125 0.2059987,6.8875 0,9.5 C 1.5290408,52.3625 1.3604965,50.225 1.3604965,45 Z M 87.902228,44 C 87.504874,34.825468 87.045744,32.644905 84.265122,26.726171 80.087267,17.833335 72.201025,9.9372252 63.273829,5.7086117 56.871184,2.6758217 55.869837,2.5 45,2.5 34.172426,2.5 33.119933,2.6827676 27,5.6257386 15.89439,10.966236 9.2020316,18.09951 4.4466609,29.664969 3.1271064,32.874236 2.03679,34.772961 2.0237355,33.884357 1.9687101,30.138849 9.1698465,18.129481 14.485027,13.102605 36.661527,-7.8710053 72.2701,-1.0168669 85.251698,26.724172 c 2.570048,5.492065 3.230468,8.328056 3.564026,15.304715 0.225184,4.709918 0.214089,9.442704 -0.02466,10.5173 C 88.552324,53.620784 88.152346,49.775 87.902228,44 Z"
       id="path5550"
       inkscape:connector-curvature="0" />
    <path
       style="fill:#de968c"
       d="m 43.75,58.337719 c 0.6875,-0.277412 1.8125,-0.277412 2.5,0 0.6875,0.277413 0.125,0.504386 -1.25,0.504386 -1.375,0 -1.9375,-0.226973 -1.25,-0.504386 z M 24.194949,44.5 c 0.02038,-1.65 0.244498,-2.203936 0.498042,-1.230968 0.253543,0.972967 0.236869,2.322967 -0.03705,3 C 24.382014,46.946064 24.174569,46.15 24.194949,44.5 Z M 65.157895,45 c 0,-1.375 0.226973,-1.9375 0.504386,-1.25 0.277412,0.6875 0.277412,1.8125 0,2.5 -0.277413,0.6875 -0.504386,0.125 -0.504386,-1.25 z"
       id="path5548"
       inkscape:connector-curvature="0" />
    <path
       style="fill:#cf6354"
       d="m 43.75,31.337719 c 0.6875,-0.277412 1.8125,-0.277412 2.5,0 0.6875,0.277413 0.125,0.504386 -1.25,0.504386 -1.375,0 -1.9375,-0.226973 -1.25,-0.504386 z"
       id="path5546"
       inkscape:connector-curvature="0" />
    <path
       style="fill:#cf6253"
       d="m 43.25,68.310674 c 0.9625,-0.251527 2.5375,-0.251527 3.5,0 0.9625,0.251528 0.175,0.457323 -1.75,0.457323 -1.925,0 -2.7125,-0.205795 -1.75,-0.457323 z"
       id="path5544"
       inkscape:connector-curvature="0" />
    <path
       style="fill:#cb5545"
       d="M 37,60.5 C 38.291745,59.125 39.573628,58 39.848628,58 40.123628,58 39.291745,59.125 38,60.5 36.708255,61.875 35.426372,63 35.151372,63 34.876372,63 35.708255,61.875 37,60.5 Z M 51.924314,60.25 49.5,57.5 52.25,59.924314 C 54.820289,62.190201 55.458588,63 54.674314,63 c -0.179127,0 -1.416627,-1.2375 -2.75,-2.75 z m -23,-23 L 26.5,34.5 29.25,36.924314 C 31.820289,39.190201 32.458588,40 31.674314,40 c -0.179127,0 -1.416627,-1.2375 -2.75,-2.75 z M 60,37.5 C 61.291745,36.125 62.573628,35 62.848628,35 63.123628,35 62.291745,36.125 61,37.5 59.708255,38.875 58.426372,40 58.151372,40 57.876372,40 58.708255,38.875 60,37.5 Z"
       id="path5542"
       inkscape:connector-curvature="0" />
    <path
       style="fill:#c33c29"
       d="M 29,52.5 C 30.291745,51.125 31.573628,50 31.848628,50 32.123628,50 31.291745,51.125 30,52.5 28.708255,53.875 27.426372,55 27.151372,55 26.876372,55 27.708255,53.875 29,52.5 Z M 59.924314,52.25 57.5,49.5 l 2.75,2.424314 c 1.5125,1.333373 2.75,2.570873 2.75,2.75 0,0.784274 -0.809799,0.145975 -3.075686,-2.424314 z m -23,-23 L 34.5,26.5 l 2.75,2.424314 c 1.5125,1.333373 2.75,2.570873 2.75,2.75 0,0.784274 -0.809799,0.145975 -3.075686,-2.424314 z M 52,29.5 C 53.291745,28.125 54.573628,27 54.848628,27 55.123628,27 54.291745,28.125 53,29.5 51.708255,30.875 50.426372,32 50.151372,32 49.876372,32 50.708255,30.875 52,29.5 Z"
       id="path5540"
       inkscape:connector-curvature="0" />
    <path
       style="fill:#bf2f1b"
       d="M 35.5,66.12116 C 23.494858,60.614054 18.253713,46.370245 23.923126,34.658801 28.560267,25.079744 39.517933,19.678698 49.694424,21.956096 68.080584,26.070739 74.573602,48.046378 61.350531,61.406228 57.18293,65.616938 51.343688,67.956076 45,67.956076 c -3.2151,0 -7.161745,-0.762291 -9.5,-1.834916 z m 15.75,-1.173741 c 4.412257,-1.225345 4.571016,-1.827486 1.293622,-4.906438 -3.482963,-3.272074 -11.604281,-3.272074 -15.087244,0 -3.216606,3.021844 -3.10293,3.71515 0.793622,4.840239 4.441393,1.282406 8.545396,1.303304 13,0.0662 z M 50.704754,53.792385 c 1.212615,-0.595053 2.951948,-2.656509 3.865185,-4.581013 2.284899,-4.815067 0.618619,-10.515884 -3.874409,-13.255457 -4.047356,-2.46783 -7.343704,-2.46783 -11.39106,0 -4.493028,2.739573 -6.159308,8.44039 -3.874409,13.255457 2.878096,6.065136 8.695145,7.80972 15.274693,4.581013 z M 29.685549,52.825686 c 3.248301,-3.051621 3.33019,-12.115579 0.140137,-15.511235 -2.845087,-3.028456 -3.41629,-2.927602 -4.727861,0.834772 -1.373736,3.940702 -1.388664,8.263352 -0.04524,13.100777 1.212756,4.366925 1.542467,4.479061 4.632968,1.575686 z M 64.947419,51.25 c 1.34342,-4.837425 1.328492,-9.160075 -0.04524,-13.100777 -1.303594,-3.739491 -1.581988,-3.798651 -4.587724,-0.974909 -3.248301,3.051621 -3.33019,12.115579 -0.140137,15.511235 C 63.111957,55.812526 63.732143,55.626 64.947419,51.25 Z M 52.685549,29.825686 C 53.958497,28.629813 55,27.323835 55,26.923511 55,25.750087 49.01375,24 45,24 c -3.789078,0 -10,1.728732 -10,2.783374 0,0.323248 0.978441,1.629227 2.174314,2.902175 3.051621,3.248301 12.115579,3.33019 15.511235,0.140137 z"
       id="path5538"
       inkscape:connector-curvature="0" />
  </g>
</svg>
